<svg width="16" height="16" viewBox="0 0 16 16" fill="none" xmlns="http://www.w3.org/2000/svg">
<path d="M0.666672 14.6667H15.3333" stroke="#396CF0" stroke-width="1.2" stroke-miterlimit="10" stroke-linecap="round" stroke-linejoin="round"/>
<path d="M13.1867 14.6733V11.7" stroke="#396CF0" stroke-width="1.2" stroke-miterlimit="10" stroke-linecap="round" stroke-linejoin="round"/>
<path d="M13.2 7.26001C12.3867 7.26001 11.7333 7.91335 11.7333 8.72668V10.24C11.7333 11.0533 12.3867 11.7067 13.2 11.7067C14.0133 11.7067 14.6667 11.0533 14.6667 10.24V8.72668C14.6667 7.91335 14.0133 7.26001 13.2 7.26001Z" stroke="#396CF0" stroke-width="1.2" stroke-miterlimit="10" stroke-linecap="round" stroke-linejoin="round"/>
<path d="M1.39998 14.6666V4.01994C1.39998 2.67994 2.06668 2.00659 3.39335 2.00659H7.54667C8.87333 2.00659 9.53332 2.67994 9.53332 4.01994V14.6666" stroke="#396CF0" stroke-width="1.2" stroke-miterlimit="10" stroke-linecap="round" stroke-linejoin="round"/>
<path d="M3.8667 5.5H7.16671" stroke="#396CF0" stroke-width="1.2" stroke-miterlimit="10" stroke-linecap="round" stroke-linejoin="round"/>
<path d="M3.8667 8H7.16671" stroke="#396CF0" stroke-width="1.2" stroke-miterlimit="10" stroke-linecap="round" stroke-linejoin="round"/>
<path d="M5.5 14.6667V12.1667" stroke="#396CF0" stroke-width="1.2" stroke-miterlimit="10" stroke-linecap="round" stroke-linejoin="round"/>
</svg>
