<svg width="16" height="16" viewBox="0 0 16 16" fill="none" xmlns="http://www.w3.org/2000/svg">
<path d="M10.34 1.88672H5.66001C4 1.88672 3.63334 2.71339 3.42001 3.72672L2.66667 7.33339H13.3333L12.58 3.72672C12.3667 2.71339 12 1.88672 10.34 1.88672Z" stroke="#396CF0" stroke-width="1.2" stroke-linecap="round" stroke-linejoin="round"/>
<path d="M14.66 13.2133C14.7333 13.9933 14.1067 14.6666 13.3067 14.6666H12.0533C11.3333 14.6666 11.2333 14.3599 11.1067 13.9799L10.9733 13.5799C10.7867 13.0333 10.6667 12.6666 9.70666 12.6666H6.29333C5.33333 12.6666 5.19333 13.0799 5.02666 13.5799L4.89333 13.9799C4.76666 14.3599 4.66666 14.6666 3.94666 14.6666H2.69333C1.89333 14.6666 1.26666 13.9933 1.33999 13.2133L1.71333 9.15325C1.80666 8.15325 1.99999 7.33325 3.74666 7.33325H12.2533C14 7.33325 14.1933 8.15325 14.2867 9.15325L14.66 13.2133Z" stroke="#396CF0" stroke-width="1.2" stroke-linecap="round" stroke-linejoin="round"/>
<path d="M2.66667 5.33325H2" stroke="#396CF0" stroke-width="1.2" stroke-linecap="round" stroke-linejoin="round"/>
<path d="M14 5.33325H13.3333" stroke="#396CF0" stroke-width="1.2" stroke-linecap="round" stroke-linejoin="round"/>
<path d="M8 2V3.33333" stroke="#396CF0" stroke-width="1.2" stroke-linecap="round" stroke-linejoin="round"/>
<path d="M7 3.33325H9" stroke="#396CF0" stroke-width="1.2" stroke-linecap="round" stroke-linejoin="round"/>
<path d="M4 10H6" stroke="#396CF0" stroke-width="1.2" stroke-linecap="round" stroke-linejoin="round"/>
<path d="M10 10H12" stroke="#396CF0" stroke-width="1.2" stroke-linecap="round" stroke-linejoin="round"/>
</svg>
