<svg width="16" height="16" viewBox="0 0 16 16" fill="none" xmlns="http://www.w3.org/2000/svg">
<path d="M13.9694 14.8709H10.1008V13.5095H12.5037C13.2366 13.5102 13.9146 13.1198 14.2811 12.4853C14.6483 11.8507 14.6483 11.0683 14.2818 10.4338L12.6802 7.71024C13.3342 7.12304 13.6481 6.24523 13.5144 5.3756C13.38 4.50681 12.8161 3.76417 12.0148 3.40139L12.4797 2.92908V2.92833C12.5893 2.82395 12.6516 2.67977 12.6516 2.5281C12.6516 2.37643 12.5893 2.23224 12.4797 2.12788L11.8707 1.57521L12.3032 1.09464C12.5247 0.873127 12.5247 0.514943 12.3032 0.293417C12.0824 0.0719088 11.7235 0.0719088 11.5027 0.293417L11.086 0.773994L10.477 0.165006C10.2555 -0.0550021 9.89803 -0.0550021 9.67651 0.165006L5.27096 4.55479C5.16133 4.65917 5.099 4.80335 5.099 4.95502C5.099 5.10669 5.16133 5.25088 5.27096 5.35524L5.89571 5.94845L5.43916 6.38097C5.32953 6.48534 5.2672 6.62952 5.2672 6.78119C5.2672 6.93286 5.32953 7.07705 5.43916 7.18142C5.54354 7.29105 5.68846 7.35337 5.83939 7.35337C5.99107 7.35337 6.136 7.29105 6.24036 7.18142L6.68115 6.7489L7.28187 7.34962H7.28112C7.38549 7.45925 7.53042 7.52157 7.68209 7.52157C7.83302 7.52157 7.97795 7.45925 8.08231 7.34962L8.54713 6.8848V6.88555C8.97965 7.82118 9.91827 8.41965 10.95 8.41514C11.2219 8.41063 11.4922 8.36483 11.7505 8.27922L13.3522 11.0028L13.3529 11.002C13.5174 11.2903 13.5174 11.644 13.3522 11.9316C13.1877 12.22 12.8836 12.3994 12.5517 12.4039H2.62776C2.46857 12.3851 2.30862 12.4347 2.18848 12.5413C2.06908 12.6472 2 12.8004 2 12.9603C2 13.121 2.06908 13.2735 2.18848 13.3801C2.30862 13.4867 2.46856 13.5363 2.62776 13.5175H6.49641V14.8789H2.62776C2.31839 14.8789 2.06683 15.1297 2.06683 15.4398C2.06683 15.7492 2.31839 16 2.62776 16H13.9694C14.2788 16 14.5303 15.7492 14.5303 15.4398C14.5303 15.1297 14.2788 14.8789 13.9694 14.8789L13.9694 14.8709ZM7.67388 6.15665L6.45668 4.94694L10.085 1.31859L11.294 2.53654L7.67388 6.15665ZM9.41972 5.99671L11.1258 4.2824C11.689 4.36424 12.1575 4.75698 12.3377 5.29686C12.5172 5.83676 12.3775 6.43146 11.9765 6.8347C11.5748 7.23795 10.9801 7.3806 10.4395 7.2034C9.8988 7.02619 9.50457 6.55912 9.41972 5.99671Z" fill="#396CF0"/>
</svg>
