<svg width="16" height="16" viewBox="0 0 16 16" fill="none" xmlns="http://www.w3.org/2000/svg">
<g clip-path="url(#clip0_9328_1347)">
<mask id="mask0_9328_1347" style="mask-type:luminance" maskUnits="userSpaceOnUse" x="0" y="0" width="16" height="16">
<path d="M16 0H0V16H16V0Z" fill="white"/>
</mask>
<g mask="url(#mask0_9328_1347)">
<path d="M6.86658 11.5222V13.8067C6.86365 13.8925 6.82738 13.9739 6.76558 14.0336C6.70378 14.0932 6.62124 14.1266 6.53533 14.1264H4.1367C3.74231 14.06 3.38528 13.8531 3.13156 13.544" stroke="#396CF0" stroke-width="1.14286" stroke-linecap="round" stroke-linejoin="round"/>
<path d="M3.1318 13.5552C3.1318 13.5552 1.8868 12.4701 4.77658 9.58033H6.06726L4.13694 6.39355H0.584686L1.55556 7.63853C1.55556 7.63853 0.904504 7.7528 0.904504 8.65513C1.246 10.4426 2.00963 12.1226 3.1318 13.5552Z" stroke="#396CF0" stroke-width="1.14286" stroke-linecap="round" stroke-linejoin="round"/>
<path d="M11.8353 7.28467L13.5259 6.14248C13.5636 6.12581 13.6045 6.11719 13.6457 6.11719C13.6871 6.11719 13.7279 6.12581 13.7657 6.14248C13.8099 6.14765 13.8523 6.16264 13.8897 6.18635C13.9273 6.21008 13.9591 6.24192 13.9828 6.27954L15.2963 8.24413C15.3748 8.40207 15.4156 8.57607 15.4156 8.7524C15.4156 8.9288 15.3748 9.10273 15.2963 9.26067" stroke="#396CF0" stroke-width="1.14286" stroke-linecap="round" stroke-linejoin="round"/>
<path d="M15.3419 9.14648C15.3419 9.14648 14.9765 10.6314 11.1957 10.2887V9.29502L8.97986 12.1962L11.0815 15.4286L11.1957 13.9095C11.1957 13.9095 11.6184 14.4235 12.3379 13.9095C13.5448 12.4612 14.5549 10.8596 15.3419 9.14648Z" stroke="#396CF0" stroke-width="1.14286" stroke-linecap="round" stroke-linejoin="round"/>
<path d="M4.98196 4.89737L3.43998 4.1892C3.36393 4.14991 3.30533 4.08357 3.27574 4.00323C3.24614 3.9229 3.24769 3.83441 3.28007 3.75517L4.58219 1.15093C4.66917 0.996755 4.79082 0.864901 4.9375 0.765788C5.08419 0.666674 5.2519 0.603015 5.42741 0.579834" stroke="#396CF0" stroke-width="1.14286" stroke-linecap="round" stroke-linejoin="round"/>
<path d="M5.42778 0.579773C5.42778 0.579773 6.83271 0.579773 8.61451 4.00639L7.68938 5.14859H11.5272L12.8864 1.56207L11.2873 2.05322C11.264 1.80539 11.1743 1.56843 11.0275 1.36739C10.8808 1.16634 10.6824 1.00867 10.4535 0.911013C9.66625 0.650383 8.83745 0.538069 8.00918 0.579773H5.42778Z" stroke="#396CF0" stroke-width="1.14286" stroke-linecap="round" stroke-linejoin="round"/>
</g>
</g>
<defs>
<clipPath id="clip0_9328_1347">
<rect width="16" height="16" fill="white"/>
</clipPath>
</defs>
</svg>
