<svg width="18" height="18" viewBox="0 0 18 18" fill="none" xmlns="http://www.w3.org/2000/svg">
<path d="M1.93945 16.0605H7.17188V15.2725H1.93945V16.0605ZM3.29297 14.2832H5.81836L5.74805 12.6055H3.36328L3.29297 14.2832ZM3.4043 11.6162H5.70703L5.63672 9.93848H3.47461L3.4043 11.6162ZM3.51562 8.9502H5.5957L5.52539 7.27246H3.58496L3.51562 8.9502ZM3.62598 6.2832H5.48535L5.41504 4.60547H3.69629L3.62598 6.2832ZM2.78125 3.61621H10.3574L4.67578 1.99219L2.78125 3.61621ZM14.3838 5.48828C14.6087 5.5746 14.8084 5.71635 14.9609 5.90332L15.0703 6.05762C15.1685 6.21884 15.2327 6.39957 15.2588 6.58789C15.2848 6.77602 15.2723 6.96675 15.2217 7.14844L15.1582 7.32715C15.0826 7.50172 14.9719 7.65801 14.834 7.78711L14.6875 7.90723C14.5323 8.01695 14.3566 8.09324 14.1719 8.13184L13.9844 8.15723C13.7946 8.17033 13.6048 8.14418 13.4268 8.08105L13.2529 8.00586C13.0278 7.88928 12.8388 7.71269 12.707 7.49609C12.5754 7.27953 12.5059 7.0308 12.5059 6.77734L12.5156 6.68066C12.5349 6.5859 12.5819 6.49798 12.6514 6.42871C12.744 6.33649 12.8693 6.2842 13 6.28418C13.1307 6.28418 13.256 6.33651 13.3486 6.42871C13.4413 6.52108 13.4937 6.6465 13.4941 6.77734L13.499 6.83594C13.5076 6.8932 13.5281 6.94853 13.5605 6.99707C13.6039 7.0619 13.6662 7.11176 13.7383 7.1416C13.8103 7.17142 13.8893 7.17927 13.9658 7.16406L14.0225 7.14844C14.0769 7.12886 14.1267 7.09785 14.168 7.05664L14.2061 7.0127C14.2406 6.96607 14.264 6.91189 14.2754 6.85449L14.2832 6.79688C14.2851 6.75811 14.2809 6.71928 14.2715 6.68164L14.2529 6.62695C14.2306 6.57297 14.1972 6.52431 14.1543 6.48535L14.1084 6.44922C14.0598 6.41677 14.0045 6.39627 13.9473 6.3877L13.8887 6.38281C13.7903 6.38275 13.6949 6.35368 13.6143 6.2998L13.5391 6.23828C13.4464 6.14557 13.3945 6.01974 13.3945 5.88867V4.60547H6.4043L6.80762 14.2832H7.66699L7.76367 14.293C7.85868 14.312 7.94707 14.3582 8.0166 14.4277L8.07812 14.5029C8.13195 14.5836 8.16109 14.679 8.16113 14.7773V16.5557L8.15137 16.6523C8.13867 16.7158 8.11405 16.7763 8.07812 16.8301L8.0166 16.9053C7.94707 16.9748 7.85867 17.021 7.76367 17.04L7.66699 17.0498H1.44434C1.34599 17.0498 1.25054 17.0206 1.16992 16.9668L1.09473 16.9053C1.00208 16.8126 0.950292 16.6867 0.950195 16.5557V14.7773L0.959961 14.6807C0.978967 14.5856 1.02519 14.4973 1.09473 14.4277L1.16992 14.3662C1.25055 14.3124 1.34596 14.2832 1.44434 14.2832H2.30371L2.70703 4.60547H1.44434C1.3685 4.60545 1.29405 4.58782 1.22656 4.55469L1.16211 4.5166C1.09978 4.47321 1.0482 4.41644 1.01172 4.35059L0.980469 4.28223C0.945502 4.18754 0.940459 4.08403 0.96582 3.98633L0.990234 3.91504C1.01994 3.84616 1.06558 3.78459 1.12305 3.73535L4.2334 1.06836H4.23438L4.33496 1.00195C4.37139 0.983836 4.41015 0.970665 4.4502 0.961914L4.57129 0.950195C4.61178 0.951434 4.65213 0.95763 4.69141 0.96875L14.0244 3.63574L14.0498 3.64648C14.0551 3.64964 14.0546 3.64973 14.0537 3.64941H14.0547L14.125 3.68457H14.126C14.1963 3.7214 14.2563 3.77543 14.2998 3.8418L14.3291 3.89355C14.3545 3.9457 14.3694 4.00242 14.374 4.06055C14.3775 4.07476 14.3807 4.08904 14.3828 4.10352L14.3838 4.11133V5.48828Z" fill="#396CF0" stroke="#396CF0" stroke-width="0.1"/>
<path d="M13.8887 8.94873C13.9536 8.94876 14.0181 8.96095 14.0781 8.98584C14.1382 9.01078 14.1924 9.04817 14.2383 9.09424L14.2998 9.16943C14.3176 9.19624 14.3334 9.22449 14.3457 9.25439L14.374 9.34814C14.3802 9.37982 14.3829 9.41239 14.3828 9.44482V13.394H16.0605V9.44482L16.0703 9.34717C16.0893 9.25245 16.1358 9.16461 16.2051 9.09521L16.2812 9.03271C16.3617 8.97922 16.4567 8.9498 16.5547 8.94971L16.6523 8.95947C16.7473 8.97851 16.8348 9.02575 16.9043 9.09521C16.997 9.18794 17.0498 9.31369 17.0498 9.44482V16.5552L17.04 16.6528C17.021 16.7477 16.9738 16.8353 16.9043 16.9048C16.8348 16.9742 16.7473 17.0215 16.6523 17.0405L16.5547 17.0503H11.2217C11.0906 17.0503 10.9648 16.9975 10.8721 16.9048C10.7795 16.8121 10.7275 16.6862 10.7275 16.5552V12.5552L10.7373 12.4585C10.7566 12.3638 10.8036 12.2758 10.873 12.2065L10.9482 12.145C11.0287 12.0916 11.1237 12.063 11.2217 12.063C11.3525 12.063 11.4786 12.1142 11.5713 12.2065L11.6328 12.2817C11.6866 12.362 11.7155 12.4571 11.7158 12.5552V13.394H13.3936V9.44482L13.4033 9.34814C13.4095 9.3163 13.4192 9.28455 13.4316 9.25439L13.4766 9.16943C13.4945 9.14245 13.5151 9.1173 13.5381 9.09424L13.6133 9.03174C13.6401 9.01378 13.6693 8.99828 13.6992 8.98584C13.7592 8.96102 13.8238 8.94873 13.8887 8.94873ZM14.3828 16.061H16.0605V14.3833H14.3828V16.061ZM11.7158 16.061H13.3936V14.3833H11.7158V16.061Z" fill="#396CF0" stroke="#396CF0" stroke-width="0.1"/>
</svg>
