<svg width="16" height="16" viewBox="0 0 16 16" fill="none" xmlns="http://www.w3.org/2000/svg">
<path d="M5.87334 1.3335L3.46001 3.7535" stroke="#396CF0" stroke-width="1.2" stroke-miterlimit="10" stroke-linecap="round" stroke-linejoin="round"/>
<path d="M10.1267 1.3335L12.54 3.7535" stroke="#396CF0" stroke-width="1.2" stroke-miterlimit="10" stroke-linecap="round" stroke-linejoin="round"/>
<path d="M1.33333 5.23324C1.33333 3.9999 1.99333 3.8999 2.81333 3.8999H13.1867C14.0067 3.8999 14.6667 3.9999 14.6667 5.23324C14.6667 6.66657 14.0067 6.56657 13.1867 6.56657H2.81333C1.99333 6.56657 1.33333 6.66657 1.33333 5.23324Z" stroke="#396CF0" stroke-width="1.2"/>
<path d="M6.50667 9.3335V11.7002" stroke="#396CF0" stroke-width="1.2" stroke-linecap="round"/>
<path d="M9.57333 9.3335V11.7002" stroke="#396CF0" stroke-width="1.2" stroke-linecap="round"/>
<path d="M2.33333 6.6665L3.27333 12.4265C3.48666 13.7198 3.99999 14.6665 5.90666 14.6665H9.92666C12 14.6665 12.3067 13.7598 12.5467 12.5065L13.6667 6.6665" stroke="#396CF0" stroke-width="1.2" stroke-linecap="round"/>
</svg>
