<svg width="16" height="16" viewBox="0 0 16 16" fill="none" xmlns="http://www.w3.org/2000/svg">
<path d="M8.24666 1.43307L14.2467 3.83305C14.48 3.92638 14.6667 4.20638 14.6667 4.45305V6.66638C14.6667 7.03305 14.3667 7.33305 14 7.33305H1.99999C1.63333 7.33305 1.33333 7.03305 1.33333 6.66638V4.45305C1.33333 4.20638 1.52 3.92638 1.75333 3.83305L7.75333 1.43307C7.88666 1.37973 8.11332 1.37973 8.24666 1.43307Z" stroke="#396CF0" stroke-width="1.2" stroke-miterlimit="10" stroke-linecap="round" stroke-linejoin="round"/>
<path d="M14.6667 14.6667H1.33333V12.6667C1.33333 12.3 1.63333 12 1.99999 12H14C14.3667 12 14.6667 12.3 14.6667 12.6667V14.6667Z" stroke="#396CF0" stroke-width="1.2" stroke-miterlimit="10" stroke-linecap="round" stroke-linejoin="round"/>
<path d="M2.66667 12.0002V7.3335" stroke="#396CF0" stroke-width="1.2" stroke-miterlimit="10" stroke-linecap="round" stroke-linejoin="round"/>
<path d="M5.33333 12.0002V7.3335" stroke="#396CF0" stroke-width="1.2" stroke-miterlimit="10" stroke-linecap="round" stroke-linejoin="round"/>
<path d="M8 12.0002V7.3335" stroke="#396CF0" stroke-width="1.2" stroke-miterlimit="10" stroke-linecap="round" stroke-linejoin="round"/>
<path d="M10.6667 12.0002V7.3335" stroke="#396CF0" stroke-width="1.2" stroke-miterlimit="10" stroke-linecap="round" stroke-linejoin="round"/>
<path d="M13.3333 12.0002V7.3335" stroke="#396CF0" stroke-width="1.2" stroke-miterlimit="10" stroke-linecap="round" stroke-linejoin="round"/>
<path d="M0.666672 14.6665H15.3333" stroke="#396CF0" stroke-width="1.2" stroke-miterlimit="10" stroke-linecap="round" stroke-linejoin="round"/>
<path d="M8 5.6665C8.55228 5.6665 9 5.21879 9 4.6665C9 4.11422 8.55228 3.6665 8 3.6665C7.44772 3.6665 7 4.11422 7 4.6665C7 5.21879 7.44772 5.6665 8 5.6665Z" stroke="#396CF0" stroke-width="1.2" stroke-miterlimit="10" stroke-linecap="round" stroke-linejoin="round"/>
</svg>
