<svg width="16" height="16" viewBox="0 0 16 16" fill="none" xmlns="http://www.w3.org/2000/svg">
<path d="M11.4534 12C13.0534 12 13.4534 11.1 13.4534 10V6C13.4534 4.9 13.0534 4 11.4534 4C9.85338 4 9.45338 4.9 9.45338 6V10C9.45338 11.1 9.85338 12 11.4534 12Z" stroke="#396CF0" stroke-width="1.2" stroke-linecap="round" stroke-linejoin="round"/>
<path d="M4.54662 12C2.94662 12 2.54662 11.1 2.54662 10V6C2.54662 4.9 2.94662 4 4.54662 4C6.14662 4 6.54662 4.9 6.54662 6V10C6.54662 11.1 6.14662 12 4.54662 12Z" stroke="#396CF0" stroke-width="1.2" stroke-linecap="round" stroke-linejoin="round"/>
<path d="M6.54662 8H9.45328" stroke="#396CF0" stroke-width="1.2" stroke-linecap="round" stroke-linejoin="round"/>
<path d="M15 9.66683V6.3335" stroke="#396CF0" stroke-width="1.2" stroke-linecap="round" stroke-linejoin="round"/>
<path d="M1 9.66683V6.3335" stroke="#396CF0" stroke-width="1.2" stroke-linecap="round" stroke-linejoin="round"/>
</svg>
