<svg width="16" height="16" viewBox="0 0 16 16" fill="none" xmlns="http://www.w3.org/2000/svg">
<path d="M6 14.6668H10C13.3333 14.6668 14.6667 13.3335 14.6667 10.0002V6.00016C14.6667 2.66683 13.3333 1.3335 10 1.3335H6C2.66666 1.3335 1.33333 2.66683 1.33333 6.00016V10.0002C1.33333 13.3335 2.66666 14.6668 6 14.6668Z" stroke="#396CF0" stroke-width="1.2" stroke-linecap="round" stroke-linejoin="round"/>
<path d="M4.66667 5.5C5.33334 6.16667 6.42001 6.16667 7.09334 5.5" stroke="#396CF0" stroke-width="1.2" stroke-miterlimit="10" stroke-linecap="round" stroke-linejoin="round"/>
<path d="M8.90666 5.5C9.57333 6.16667 10.66 6.16667 11.3333 5.5" stroke="#396CF0" stroke-width="1.2" stroke-miterlimit="10" stroke-linecap="round" stroke-linejoin="round"/>
<path d="M5.6 8.6665H10.4C10.7333 8.6665 11 8.93317 11 9.2665C11 10.9265 9.66 12.2665 8 12.2665C6.34 12.2665 5 10.9265 5 9.2665C5 8.93317 5.26667 8.6665 5.6 8.6665Z" stroke="#396CF0" stroke-width="1.2" stroke-miterlimit="10" stroke-linecap="round" stroke-linejoin="round"/>
</svg>
