<svg width="40" height="41" viewBox="0 0 40 41" fill="none" xmlns="http://www.w3.org/2000/svg">
<path d="M25.6499 9.20596L27.9999 13.9059C28.3166 14.5559 29.1666 15.1726 29.8832 15.3059L34.1333 16.0059C36.8499 16.4559 37.4833 18.4226 35.5333 20.3893L32.2166 23.706C31.6666 24.256 31.3499 25.3393 31.5333 26.1226L32.4832 30.2226C33.2332 33.456 31.4999 34.7226 28.6499 33.0226L24.6666 30.6559C23.9499 30.2226 22.7499 30.2226 22.0333 30.6559L18.0499 33.0226C15.1999 34.7059 13.4666 33.456 14.2166 30.2226L15.1666 26.1226C15.3499 25.3559 15.0333 24.2726 14.4833 23.706L11.1666 20.3893C9.2166 18.4393 9.84993 16.4726 12.5666 16.0059L16.8166 15.3059C17.5332 15.1893 18.3833 14.5559 18.6999 13.9059L21.0499 9.20596C22.2999 6.65596 24.3666 6.65596 25.6499 9.20596Z" stroke="#396CF0" stroke-width="3.33333" stroke-linecap="round" stroke-linejoin="round"/>
<path d="M13.333 8.85596H3.33301" stroke="#396CF0" stroke-width="3.33333" stroke-linecap="round" stroke-linejoin="round"/>
<path d="M8.33301 32.189H3.33301" stroke="#396CF0" stroke-width="3.33333" stroke-linecap="round" stroke-linejoin="round"/>
<path d="M4.99967 20.5225H3.33301" stroke="#396CF0" stroke-width="3.33333" stroke-linecap="round" stroke-linejoin="round"/>
</svg>
