<svg width="16" height="16" viewBox="0 0 16 16" fill="none" xmlns="http://www.w3.org/2000/svg">
<path d="M3.31432 10.1426H12.6858C14.1405 10.1426 15.3198 11.3218 15.3198 12.7765C15.3198 14.2311 14.1405 15.4104 12.6858 15.4104H3.31432C1.85964 15.4104 0.680389 14.2311 0.680389 12.7765C0.680389 11.3218 1.85964 10.1426 3.31432 10.1426Z" stroke="#396CF0" stroke-width="1.14286" stroke-linecap="round" stroke-linejoin="round"/>
<path d="M11.9374 1.70996H3.93757C3.53593 1.70996 3.21033 2.00039 3.21033 2.35866V9.49433C3.21033 9.8526 3.53593 10.143 3.93757 10.143H11.9374C12.339 10.143 12.6646 9.8526 12.6646 9.49433V2.35866C12.6646 2.00039 12.339 1.70996 11.9374 1.70996Z" stroke="#396CF0" stroke-width="1.14286" stroke-linecap="round" stroke-linejoin="round"/>
<path d="M9.39212 1.70996V4.95343C9.39212 5.03946 9.35378 5.12196 9.28558 5.18279C9.21745 5.24362 9.12492 5.27779 9.02852 5.27779H6.84672C6.75032 5.27779 6.65782 5.24362 6.58962 5.18279C6.52143 5.12196 6.48312 5.03946 6.48312 4.95343V1.70996" stroke="#396CF0" stroke-width="1.14286" stroke-linecap="round" stroke-linejoin="round"/>
<path d="M4.26884 13.0627C4.11104 13.0627 3.98312 12.9347 3.98312 12.7769C3.98312 12.6191 4.11104 12.4912 4.26884 12.4912" stroke="#396CF0" stroke-width="1.14286" stroke-linecap="round" stroke-linejoin="round"/>
<path d="M4.26897 13.0627C4.42676 13.0627 4.55468 12.9347 4.55468 12.7769C4.55468 12.6191 4.42676 12.4912 4.26897 12.4912" stroke="#396CF0" stroke-width="1.14286" stroke-linecap="round" stroke-linejoin="round"/>
<path d="M7.99997 13.0627C7.84217 13.0627 7.71423 12.9347 7.71423 12.7769C7.71423 12.6191 7.84217 12.4912 7.99997 12.4912" stroke="#396CF0" stroke-width="1.14286" stroke-linecap="round" stroke-linejoin="round"/>
<path d="M8 13.0627C8.1578 13.0627 8.28573 12.9347 8.28573 12.7769C8.28573 12.6191 8.1578 12.4912 8 12.4912" stroke="#396CF0" stroke-width="1.14286" stroke-linecap="round" stroke-linejoin="round"/>
<path d="M11.7317 13.0627C11.5739 13.0627 11.446 12.9347 11.446 12.7769C11.446 12.6191 11.5739 12.4912 11.7317 12.4912" stroke="#396CF0" stroke-width="1.14286" stroke-linecap="round" stroke-linejoin="round"/>
<path d="M11.732 13.0627C11.8898 13.0627 12.0177 12.9347 12.0177 12.7769C12.0177 12.6191 11.8898 12.4912 11.732 12.4912" stroke="#396CF0" stroke-width="1.14286" stroke-linecap="round" stroke-linejoin="round"/>
</svg>
