<svg width="16" height="16" viewBox="0 0 16 16" fill="none" xmlns="http://www.w3.org/2000/svg">
<g clip-path="url(#clip0_9328_1460)">
<path d="M12.8916 10.6744C13.1063 10.4705 13.2773 10.225 13.3943 9.95289C13.5111 9.68075 13.5714 9.38769 13.5714 9.09155C13.5714 8.79542 13.5111 8.50235 13.3943 8.23022C13.2773 7.95809 13.1063 7.71262 12.8916 7.50869C12.4521 7.09149 11.8691 6.85889 11.2631 6.85889C10.657 6.85889 10.0741 7.09149 9.63448 7.50869L8.00021 9.14295L6.36592 7.50869C5.92633 7.09149 5.34339 6.85889 4.73735 6.85889C4.13129 6.85889 3.54835 7.09149 3.10877 7.50869C2.89402 7.71262 2.72303 7.95809 2.60617 8.23022C2.48931 8.50235 2.42905 8.79542 2.42905 9.09155C2.42905 9.38769 2.48931 9.68075 2.60617 9.95289C2.72303 10.225 2.89402 10.4705 3.10877 10.6744L8.00021 15.4286L12.8916 10.6744Z" stroke="#396CF0" stroke-width="1.2" stroke-linecap="round" stroke-linejoin="round"/>
<path d="M7.99994 5.14272C9.26228 5.14272 10.2856 4.11937 10.2856 2.85701C10.2856 1.59464 9.26228 0.571289 7.99994 0.571289C6.73754 0.571289 5.7142 1.59464 5.7142 2.85701C5.7142 4.11937 6.73754 5.14272 7.99994 5.14272Z" stroke="#396CF0" stroke-width="1.2" stroke-linecap="round" stroke-linejoin="round"/>
</g>
<defs>
<clipPath id="clip0_9328_1460">
<rect width="16" height="16" fill="white"/>
</clipPath>
</defs>
</svg>
