<svg width="16" height="16" viewBox="0 0 16 16" fill="none" xmlns="http://www.w3.org/2000/svg">
<path d="M12.3133 11.2202L12.5733 13.3268C12.64 13.8802 12.0466 14.2668 11.5733 13.9801L8.77998 12.3202C8.47331 12.3202 8.17332 12.3002 7.87998 12.2602C8.37332 11.6802 8.66665 10.9468 8.66665 10.1535C8.66665 8.26015 7.02665 6.72685 4.99998 6.72685C4.22665 6.72685 3.51332 6.94683 2.91998 7.3335C2.89998 7.16683 2.89331 7.00016 2.89331 6.82682C2.89331 3.79349 5.52664 1.3335 8.77998 1.3335C12.0333 1.3335 14.6666 3.79349 14.6666 6.82682C14.6666 8.62682 13.74 10.2202 12.3133 11.2202Z" stroke="#396CF0" stroke-width="1.2" stroke-linecap="round" stroke-linejoin="round"/>
<path d="M8.66666 10.1532C8.66666 10.9465 8.37333 11.6799 7.88 12.2599C7.22 13.0599 6.17333 13.5732 5 13.5732L3.25999 14.6065C2.96666 14.7865 2.59333 14.5399 2.63333 14.1999L2.79999 12.8866C1.90666 12.2666 1.33333 11.2732 1.33333 10.1532C1.33333 8.97986 1.96 7.94654 2.92 7.33321C3.51333 6.94654 4.22666 6.72656 5 6.72656C7.02666 6.72656 8.66666 8.25987 8.66666 10.1532Z" stroke="#396CF0" stroke-width="1.2" stroke-linecap="round" stroke-linejoin="round"/>
</svg>
