<svg width="16" height="16" viewBox="0 0 16 16" fill="none" xmlns="http://www.w3.org/2000/svg">
<path d="M1.33333 14.6665H14.6667" stroke="#396CF0" stroke-width="1.2" stroke-miterlimit="10" stroke-linecap="round" stroke-linejoin="round"/>
<path d="M1.96663 14.667L1.99996 6.64698C1.99996 6.24032 2.1933 5.85369 2.5133 5.60035L7.17996 1.96701C7.65996 1.59368 8.3333 1.59368 8.81996 1.96701L13.4866 5.59368C13.8133 5.84701 14 6.23365 14 6.64698V14.667" stroke="#396CF0" stroke-width="1.2" stroke-miterlimit="10" stroke-linejoin="round"/>
<path d="M8.66666 11.3335H7.33333C6.77999 11.3335 6.33333 11.7802 6.33333 12.3335V14.6668H9.66666V12.3335C9.66666 11.7802 9.21999 11.3335 8.66666 11.3335Z" stroke="#396CF0" stroke-width="1.2" stroke-miterlimit="10" stroke-linejoin="round"/>
<path d="M6.33333 9.16683H4.99999C4.63333 9.16683 4.33333 8.86683 4.33333 8.50016V7.50016C4.33333 7.1335 4.63333 6.8335 4.99999 6.8335H6.33333C6.69999 6.8335 6.99999 7.1335 6.99999 7.50016V8.50016C6.99999 8.86683 6.69999 9.16683 6.33333 9.16683Z" stroke="#396CF0" stroke-width="1.2" stroke-miterlimit="10" stroke-linejoin="round"/>
<path d="M11 9.16683H9.66667C9.3 9.16683 9 8.86683 9 8.50016V7.50016C9 7.1335 9.3 6.8335 9.66667 6.8335H11C11.3667 6.8335 11.6667 7.1335 11.6667 7.50016V8.50016C11.6667 8.86683 11.3667 9.16683 11 9.16683Z" stroke="#396CF0" stroke-width="1.2" stroke-miterlimit="10" stroke-linejoin="round"/>
<path d="M12.6666 4.6665L12.6466 2.6665H9.7133" stroke="#396CF0" stroke-width="1.2" stroke-miterlimit="10" stroke-linecap="round" stroke-linejoin="round"/>
</svg>
