<svg width="25" height="33" viewBox="0 0 25 33" fill="none" xmlns="http://www.w3.org/2000/svg">
<path d="M9.87771 15.4551H9.19339C8.90387 15.4551 8.66699 15.692 8.66699 15.9815V17.4817C8.66699 17.7712 8.90387 18.0081 9.19339 18.0081H9.87771C10.1672 18.0081 10.4041 17.7712 10.4041 17.4817V15.9815C10.4041 15.692 10.1672 15.4551 9.87771 15.4551Z" fill="#396CF0"/>
<path d="M13.5095 15.4551H12.8252C12.5357 15.4551 12.2988 15.692 12.2988 15.9815V17.4817C12.2988 17.7712 12.5357 18.0081 12.8252 18.0081H13.5095C13.7991 18.0081 14.0359 17.7712 14.0359 17.4817V15.9815C14.0359 15.692 13.7991 15.4551 13.5095 15.4551Z" fill="#396CF0"/>
<path d="M17.1404 15.4551H16.4561C16.1666 15.4551 15.9297 15.692 15.9297 15.9815V17.4817C15.9297 17.7712 16.1666 18.0081 16.4561 18.0081H17.1404C17.4299 18.0081 17.6668 17.7712 17.6668 17.4817V15.9815C17.6668 15.692 17.4299 15.4551 17.1404 15.4551Z" fill="#396CF0"/>
<path d="M9.87771 20.1406H9.19339C8.90387 20.1406 8.66699 20.3775 8.66699 20.667V22.1673C8.66699 22.4568 8.90387 22.6937 9.19339 22.6937H9.87771C10.1672 22.6937 10.4041 22.4568 10.4041 22.1673V20.667C10.4041 20.3775 10.1672 20.1406 9.87771 20.1406Z" fill="#396CF0"/>
<path d="M13.5095 20.1406H12.8252C12.5357 20.1406 12.2988 20.3775 12.2988 20.667V22.1673C12.2988 22.4568 12.5357 22.6937 12.8252 22.6937H13.5095C13.7991 22.6937 14.0359 22.4568 14.0359 22.1673V20.667C14.0359 20.3775 13.7991 20.1406 13.5095 20.1406Z" fill="#396CF0"/>
<path d="M17.1404 20.1406H16.4561C16.1666 20.1406 15.9297 20.3775 15.9297 20.667V22.1673C15.9297 22.4568 16.1666 22.6937 16.4561 22.6937H17.1404C17.4299 22.6937 17.6668 22.4568 17.6668 22.1673V20.667C17.6668 20.3775 17.4299 20.1406 17.1404 20.1406Z" fill="#396CF0"/>
<path d="M9.87771 24.8516H9.19339C8.90387 24.8516 8.66699 25.0884 8.66699 25.378V26.8782C8.66699 27.1677 8.90387 27.4046 9.19339 27.4046H9.87771C10.1672 27.4046 10.4041 27.1677 10.4041 26.8782V25.378C10.4041 25.0884 10.1672 24.8516 9.87771 24.8516Z" fill="#396CF0"/>
<path d="M13.5095 24.8516H12.8252C12.5357 24.8516 12.2988 25.0884 12.2988 25.378V26.8782C12.2988 27.1677 12.5357 27.4046 12.8252 27.4046H13.5095C13.7991 27.4046 14.0359 27.1677 14.0359 26.8782V25.378C14.0359 25.0884 13.7991 24.8516 13.5095 24.8516Z" fill="#396CF0"/>
<path d="M17.1404 24.8516H16.4561C16.1666 24.8516 15.9297 25.0884 15.9297 25.378V26.8782C15.9297 27.1677 16.1666 27.4046 16.4561 27.4046H17.1404C17.4299 27.4046 17.6668 27.1677 17.6668 26.8782V25.378C17.6668 25.0884 17.4299 24.8516 17.1404 24.8516Z" fill="#396CF0"/>
<path d="M22.2725 29.4982H20.9948V13.7971C20.9948 12.628 20.0484 11.6533 18.851 11.6533H7.45444C6.28528 11.6533 5.31062 12.5997 5.31062 13.7971V29.4982H4.03286C3.57608 29.4982 3.17871 29.8638 3.17871 30.3524C3.17871 30.8091 3.54431 31.2065 4.03286 31.2065H22.2199C22.6755 31.2065 23.0721 30.8427 23.074 30.356C23.1026 29.868 22.7325 29.4982 22.2725 29.4982ZM19.3391 29.4982H7.01891V13.7971C7.01891 13.546 7.22965 13.3353 7.48076 13.3353H18.8773C19.1284 13.3353 19.3391 13.546 19.3391 13.7971V29.4982Z" fill="#396CF0" stroke="#396CF0" stroke-width="0.234375"/>
<path d="M6.20834 15.7451H3.29601C2.49179 15.7451 1.83984 16.3971 1.83984 17.2013V28.8506C1.83984 29.6548 2.49179 30.3068 3.29601 30.3068H8.39259" stroke="#396CF0" stroke-width="1.71875" stroke-linejoin="round"/>
<path d="M10.0233 5.32363C10.095 5.39528 10.1308 5.50276 10.1308 5.61024L9.87999 6.82835C9.80834 7.22245 10.2383 7.54489 10.5965 7.32993L11.6713 6.72087C11.7788 6.64922 11.8863 6.64922 11.9938 6.72087L13.0686 7.32993C13.4268 7.54489 13.8568 7.22245 13.7851 6.82835L13.5343 5.61024C13.4985 5.50276 13.5343 5.39528 13.6418 5.32363L14.5733 4.49961C14.8957 4.213 14.7166 3.71143 14.2867 3.6756L13.0327 3.53229C12.9253 3.53229 12.8178 3.46064 12.782 3.35316L12.2804 2.2067C12.1012 1.81261 11.5638 1.81261 11.3847 2.2067L10.8831 3.35316C10.8473 3.42481 10.7398 3.49647 10.6324 3.53229L9.41424 3.6756C8.98432 3.71143 8.84102 4.24883 9.12763 4.49961L10.0233 5.32363Z" fill="#396CF0"/>
<path d="M17.4813 5.32363C17.553 5.39528 17.5888 5.50276 17.5888 5.61024L17.338 6.82835C17.2663 7.22245 17.6963 7.54489 18.0545 7.32993L19.1293 6.72087C19.2368 6.64922 19.3443 6.64922 19.4518 6.72087L20.5266 7.32993C20.8848 7.54489 21.3148 7.22245 21.2431 6.82835L20.9923 5.61024C20.9565 5.50276 20.9923 5.39528 21.0998 5.32363L22.0313 4.49961C22.3537 4.213 22.1746 3.71143 21.7447 3.6756L20.4908 3.53229C20.3833 3.53229 20.2758 3.46064 20.24 3.35316L19.7384 2.2067C19.5593 1.81261 19.0219 1.81261 18.8427 2.2067L18.3411 3.35316C18.3053 3.42481 18.1978 3.49647 18.0904 3.53229L16.8723 3.6756C16.4423 3.71143 16.299 4.24883 16.5856 4.49961L17.4813 5.32363Z" fill="#396CF0"/>
<path d="M2.60728 5.32363C2.67894 5.39528 2.71476 5.50276 2.71476 5.61024L2.46398 6.82835C2.39232 7.22245 2.82224 7.54489 3.18051 7.32993L4.25531 6.72087C4.36279 6.64922 4.47027 6.64922 4.57775 6.72087L5.65255 7.32993C6.01082 7.54489 6.44074 7.22245 6.36909 6.82835L6.1183 5.61024C6.08248 5.50276 6.1183 5.39528 6.22578 5.32363L7.15728 4.49961C7.47972 4.213 7.30059 3.71143 6.87066 3.6756L5.61673 3.53229C5.50925 3.53229 5.40177 3.46064 5.36594 3.35316L4.86437 2.2067C4.68523 1.81261 4.14783 1.81261 3.9687 2.2067L3.46712 3.31733C3.4313 3.42481 3.32382 3.49647 3.21634 3.49647L1.99823 3.63977C1.56831 3.6756 1.425 4.213 1.71161 4.46379L2.60728 5.32363Z" fill="#396CF0"/>
</svg>
