<svg width="27" height="27" viewBox="0 0 27 27" fill="none" xmlns="http://www.w3.org/2000/svg">
<path d="M3.38672 12.623V17.6743C3.38672 22.7255 5.41172 24.7505 10.463 24.7505H16.5267C21.578 24.7505 23.603 22.7255 23.603 17.6743V12.623" stroke="#396CF0" stroke-width="2.025" stroke-linecap="round" stroke-linejoin="round"/>
<path d="M13.4996 13.499C15.5583 13.499 17.0771 11.8228 16.8746 9.76402L16.1321 2.24902H10.8783L10.1246 9.76402C9.92206 11.8228 11.4408 13.499 13.4996 13.499Z" stroke="#396CF0" stroke-width="2.025" stroke-linecap="round" stroke-linejoin="round"/>
<path d="M20.5982 13.499C22.8707 13.499 24.5357 11.654 24.3107 9.39277L23.9957 6.29902C23.5907 3.37402 22.4657 2.24902 19.5182 2.24902H16.0869L16.8744 10.1353C17.0657 11.9915 18.7419 13.499 20.5982 13.499Z" stroke="#396CF0" stroke-width="2.025" stroke-linecap="round" stroke-linejoin="round"/>
<path d="M6.34517 13.499C8.20142 13.499 9.87767 11.9915 10.0577 10.1353L10.3052 7.64902L10.8452 2.24902H7.41392C4.46642 2.24902 3.34142 3.37402 2.93642 6.29902L2.63267 9.39277C2.40767 11.654 4.07267 13.499 6.34517 13.499Z" stroke="#396CF0" stroke-width="2.025" stroke-linecap="round" stroke-linejoin="round"/>
<path d="M13.499 19.124C11.6203 19.124 10.6865 20.0578 10.6865 21.9365V24.749H16.3115V21.9365C16.3115 20.0578 15.3778 19.124 13.499 19.124Z" stroke="#396CF0" stroke-width="2.025" stroke-linecap="round" stroke-linejoin="round"/>
</svg>
