<svg width="27" height="27" viewBox="0 0 27 27" fill="none" xmlns="http://www.w3.org/2000/svg">
<path d="M13.4995 15.75H14.6245C15.862 15.75 16.8745 14.7375 16.8745 13.5V2.25H6.74948C5.06198 2.25 3.58824 3.18374 2.82324 4.55624" stroke="#396CF0" stroke-width="2.025" stroke-linecap="round" stroke-linejoin="round"/>
<path d="M2.25 19.125C2.25 20.9925 3.7575 22.5 5.625 22.5H6.75C6.75 21.2625 7.7625 20.25 9 20.25C10.2375 20.25 11.25 21.2625 11.25 22.5H15.75C15.75 21.2625 16.7625 20.25 18 20.25C19.2375 20.25 20.25 21.2625 20.25 22.5H21.375C23.2425 22.5 24.75 20.9925 24.75 19.125V15.75H21.375C20.7562 15.75 20.25 15.2438 20.25 14.625V11.25C20.25 10.6312 20.7562 10.125 21.375 10.125H22.8262L20.9025 6.76126C20.4975 6.06376 19.755 5.625 18.945 5.625H16.875V13.5C16.875 14.7375 15.8625 15.75 14.625 15.75H13.5" stroke="#396CF0" stroke-width="2.025" stroke-linecap="round" stroke-linejoin="round"/>
<path d="M9 24.75C10.2426 24.75 11.25 23.7426 11.25 22.5C11.25 21.2574 10.2426 20.25 9 20.25C7.75736 20.25 6.75 21.2574 6.75 22.5C6.75 23.7426 7.75736 24.75 9 24.75Z" stroke="#396CF0" stroke-width="2.025" stroke-linecap="round" stroke-linejoin="round"/>
<path d="M18 24.75C19.2426 24.75 20.25 23.7426 20.25 22.5C20.25 21.2574 19.2426 20.25 18 20.25C16.7574 20.25 15.75 21.2574 15.75 22.5C15.75 23.7426 16.7574 24.75 18 24.75Z" stroke="#396CF0" stroke-width="2.025" stroke-linecap="round" stroke-linejoin="round"/>
<path d="M24.75 13.5V15.75H21.375C20.7562 15.75 20.25 15.2438 20.25 14.625V11.25C20.25 10.6312 20.7562 10.125 21.375 10.125H22.8262L24.75 13.5Z" stroke="#396CF0" stroke-width="2.025" stroke-linecap="round" stroke-linejoin="round"/>
<path d="M2.25 9H9" stroke="#396CF0" stroke-width="2.025" stroke-linecap="round" stroke-linejoin="round"/>
<path d="M2.25 12.375H6.75" stroke="#396CF0" stroke-width="2.025" stroke-linecap="round" stroke-linejoin="round"/>
<path d="M2.25 15.75H4.5" stroke="#396CF0" stroke-width="2.025" stroke-linecap="round" stroke-linejoin="round"/>
</svg>
