<svg width="27" height="27" viewBox="0 0 27 27" fill="none" xmlns="http://www.w3.org/2000/svg">
<g clip-path="url(#clip0_5270_43121)">
<mask id="mask0_5270_43121" style="mask-type:luminance" maskUnits="userSpaceOnUse" x="0" y="0" width="27" height="27">
<path d="M27 0H0V27H27V0Z" fill="white"/>
</mask>
<g mask="url(#mask0_5270_43121)">
<path d="M26.0392 25.9978H25.0749C24.052 25.9978 23.071 25.5915 22.3476 24.8681C21.6241 24.1446 21.2177 23.1636 21.2177 22.1406C21.2177 23.1636 20.8114 24.1446 20.088 24.8681C19.3646 25.5915 18.3836 25.9978 17.3607 25.9978C16.3376 25.9978 15.3566 25.5915 14.6332 24.8681C13.9099 24.1446 13.5035 23.1636 13.5035 22.1406C13.5035 23.1636 13.0972 24.1446 12.3738 24.8681C11.6504 25.5915 10.6693 25.9978 9.64635 25.9978C8.62337 25.9978 7.64228 25.5915 6.91894 24.8681C6.19557 24.1446 5.78921 23.1636 5.78921 22.1406C5.78921 23.1636 5.38283 24.1446 4.65946 24.8681C3.93612 25.5915 2.95503 25.9978 1.93205 25.9978H0.967773" stroke="#396CF0" stroke-width="1.92858" stroke-linecap="round" stroke-linejoin="round"/>
<path d="M19.2898 18.2839C18.2966 17.0762 17.0482 16.1036 15.6343 15.4358C14.2205 14.7681 12.6763 14.4219 11.1127 14.4219C9.54907 14.4219 8.00489 14.7681 6.59105 15.4358C5.1772 16.1036 3.92881 17.0762 2.93555 18.2839" stroke="#396CF0" stroke-width="1.92858" stroke-linecap="round" stroke-linejoin="round"/>
<path d="M12.54 14.5233C12.6557 10.1646 13.9865 6.19179 16.8793 4.76465" stroke="#396CF0" stroke-width="1.92858" stroke-linecap="round" stroke-linejoin="round"/>
<path d="M11.1123 1.1006C12.3625 0.854428 13.6594 1.09724 14.7359 1.77899C15.8123 2.46074 16.5862 3.52946 16.8981 4.76489" stroke="#396CF0" stroke-width="1.92858" stroke-linecap="round" stroke-linejoin="round"/>
<path d="M23.9355 5.47821C23.0478 4.51974 21.8409 3.91836 20.5412 3.78696C19.2414 3.65557 17.9385 4.00323 16.877 4.76463" stroke="#396CF0" stroke-width="1.92858" stroke-linecap="round" stroke-linejoin="round"/>
<path d="M9.80078 6.82839C10.5565 5.71502 11.6766 4.89989 12.9685 4.52326C14.2603 4.14661 15.643 4.23203 16.8786 4.76481C18.118 5.06793 19.1912 5.8409 19.8712 6.92048C20.5515 8.00005 20.7854 9.3017 20.5237 10.5505" stroke="#396CF0" stroke-width="1.92858" stroke-linecap="round" stroke-linejoin="round"/>
</g>
</g>
<defs>
<clipPath id="clip0_5270_43121">
<rect width="27" height="27" fill="white"/>
</clipPath>
</defs>
</svg>
