<svg width="48" height="48" viewBox="0 0 48 48" fill="none" xmlns="http://www.w3.org/2000/svg">
<path d="M18.2791 21.7977C18.0841 21.7782 17.8502 21.7782 17.6357 21.7977C12.9954 21.6417 9.31049 17.8398 9.31049 13.1606C9.31049 8.3838 13.1709 4.50391 17.9671 4.50391C22.7439 4.50391 26.6238 8.3838 26.6238 13.1606C26.6043 17.8398 22.9194 21.6417 18.2791 21.7977Z" stroke="black" stroke-width="3.37019" stroke-linecap="round" stroke-linejoin="round"/>
<path d="M32.4144 8.40234C36.1968 8.40234 39.2383 11.4634 39.2383 15.2263C39.2383 18.9112 36.3138 21.9137 32.6678 22.0502C32.5119 22.0307 32.3364 22.0307 32.1609 22.0502" stroke="black" stroke-width="3.37019" stroke-linecap="round" stroke-linejoin="round"/>
<path d="M8.53052 28.9904C3.81226 32.1489 3.81226 37.2961 8.53052 40.4351C13.8922 44.0226 22.6853 44.0226 28.047 40.4351C32.7652 37.2766 32.7652 32.1294 28.047 28.9904C22.7048 25.4225 13.9117 25.4225 8.53052 28.9904Z" stroke="black" stroke-width="3.37019" stroke-linecap="round" stroke-linejoin="round"/>
<path d="M36.1777 39.5986C37.5815 39.3061 38.9073 38.7407 39.9991 37.9023C43.0406 35.6212 43.0406 31.8583 39.9991 29.5771C38.9268 28.7583 37.6205 28.2123 36.2362 27.9004" stroke="black" stroke-width="3.37019" stroke-linecap="round" stroke-linejoin="round"/>
</svg>
