<svg width="76" height="29" viewBox="0 0 76 29" fill="none" xmlns="http://www.w3.org/2000/svg">
<path d="M0.568848 5.64965H5.52181V28.8909H0.568848V5.64965Z" fill="url(#paint0_linear_7293_2853)"/>
<path d="M37.7897 11.6954C37.6287 12.3309 37.6184 12.8487 37.9035 13.4784C39.3114 16.1193 44.5112 14.7332 47.351 17.0578C47.9916 17.596 48.4913 18.289 48.8052 19.0743C50.7199 23.6073 47.3176 28.9336 42.4931 28.9178L32.261 28.8892L32.303 24.2624L41.2674 24.367C43.588 24.3971 45.1464 22.174 44.1555 20.0242C44.1059 19.9154 44.0493 19.8101 43.9861 19.7089C41.7081 17.0578 38.5655 16.9343 37.7425 14.2058C37.457 13.2313 37.2144 12.2758 37.7897 11.6954Z" fill="url(#paint1_linear_7293_2853)"/>
<path fill-rule="evenodd" clip-rule="evenodd" d="M45.908 5.49754L38.5048 5.55729C33.6994 5.58735 30.9811 11.2033 32.9327 15.7134C33.2518 16.4968 33.9456 17.1859 34.5899 17.7179C35.8241 18.7122 37.7453 19.1017 39.5359 19.4647C41.8813 19.9402 44.0029 20.3703 44.0639 22.0547C44.1851 22.6839 43.7102 23.2746 43.5389 23.4877C43.511 23.5224 43.4911 23.5471 43.4832 23.5603C44.3908 22.9128 44.8949 21.3204 44.6022 20.3454C44.1612 18.921 42.9316 18.212 41.5987 17.4434C40.3739 16.7372 39.0617 15.9806 38.1939 14.5723C38.1302 14.4717 38.073 14.3669 38.0224 14.2587C37.0159 12.1211 38.061 9.92404 40.3723 9.9312L45.908 9.95121V5.49754Z" fill="url(#paint2_linear_7293_2853)"/>
<mask id="mask0_7293_2853" style="mask-type:alpha" maskUnits="userSpaceOnUse" x="46" y="0" width="10" height="16">
<path d="M48.1983 15.3594V9.99659V15.3594Z" fill="#ABE87B"/>
<path d="M48.1983 15.3594V9.99659" stroke="#B4E773" stroke-width="3.47707" stroke-miterlimit="10"/>
<path d="M48.1983 5.36287V1.90735e-05V5.36287Z" fill="#ABE87B"/>
<path d="M48.1983 5.36287V1.90735e-05" stroke="#B4E773" stroke-width="3.47707" stroke-miterlimit="10"/>
<path d="M55.8488 7.67451H50.4855H55.8488Z" fill="#ABE87B"/>
<path d="M55.8488 7.67451H50.4855" stroke="#B4E773" stroke-width="3.47707" stroke-miterlimit="10"/>
</mask>
<g mask="url(#mask0_7293_2853)">
<rect x="45.9432" y="-0.22934" width="12.5089" height="16.6786" fill="#ABE87B"/>
</g>
<g clip-path="url(#clip0_7293_2853)">
<path d="M16.9808 22.4694L23.7865 28.8863H31.135L23.8063 21.794L16.9808 22.4694Z" fill="url(#paint3_linear_7293_2853)"/>
<path fill-rule="evenodd" clip-rule="evenodd" d="M9.05596 5.65497V5.64648L21.6707 5.6482C22.7753 5.64809 23.8692 5.8656 24.8898 6.28832C25.9104 6.71103 26.8377 7.33068 27.6188 8.11185C28.3999 8.89303 29.0195 9.82044 29.4422 10.8411C29.8649 11.8618 30.0823 12.9557 30.0822 14.0605C30.0822 15.1652 29.8647 16.259 29.4419 17.2796C29.0192 18.3002 28.3996 19.2275 27.6185 20.0086C26.8374 20.7897 25.9101 21.4092 24.8896 21.8319C23.8691 22.2545 22.7753 22.472 21.6707 22.4719H16.9816L16.9972 18.286L19.4099 18.293L21.7917 18.2144C22.3132 18.2144 22.8296 18.1117 23.3114 17.9121C23.7931 17.7125 24.2309 17.4199 24.5996 17.0511C24.9683 16.6823 25.2608 16.2444 25.4603 15.7625C25.6598 15.2807 25.7624 14.6723 25.7623 14.1507C25.7623 13.0975 25.3439 11.9956 24.5993 11.2509C23.8547 10.5062 22.8447 10.0878 21.7917 10.0878H13.0849V28.8879H8.19141V5.65497H9.05596Z" fill="url(#paint4_linear_7293_2853)"/>
</g>
<path fill-rule="evenodd" clip-rule="evenodd" d="M57.9303 22.0449H59.2811V27.3856H62.9399V28.7364H57.9303V22.0449Z" fill="#396CF0"/>
<path d="M52.6503 26.6556V28.8147H51.2481V21.9155H54.275C54.9865 21.9155 55.5864 22.1423 56.0747 22.5957C56.563 23.0421 56.8072 23.6037 56.8072 24.2803C56.8072 24.9639 56.563 25.529 56.0747 25.9754C55.5864 26.4289 54.9865 26.6556 54.275 26.6556H52.6503ZM54.275 23.213H52.6503V25.3581H54.275C54.5819 25.3581 54.8365 25.2569 55.0388 25.0546C55.2411 24.8454 55.3423 24.5873 55.3423 24.2803C55.3423 23.9734 55.2411 23.7188 55.0388 23.5165C54.8365 23.3142 54.5819 23.213 54.275 23.213Z" fill="#396CF0"/>
<path fill-rule="evenodd" clip-rule="evenodd" d="M75.8801 23.5055C75.8769 23.4885 75.8736 23.4717 75.87 23.4549C75.7642 22.9585 75.4923 22.5658 75.054 22.277C74.601 21.9698 74.0236 21.8162 73.3219 21.8162C72.5402 21.8162 71.914 21.9869 71.4432 22.3282C71.3595 22.3888 71.2833 22.4542 71.2145 22.5243C70.8962 22.8485 70.7371 23.2737 70.7371 23.7999C70.7371 24.235 70.857 24.5934 71.0968 24.8749C71.3456 25.1565 71.7408 25.3869 72.2827 25.566L73.8283 26.0652C74.3879 26.2614 74.6677 26.5174 74.6677 26.833C74.6677 27.0041 74.6082 27.1507 74.4893 27.2729C74.4363 27.3274 74.3713 27.377 74.2946 27.4218C74.0547 27.5669 73.7438 27.6394 73.3619 27.6394C72.9533 27.6394 72.6157 27.5583 72.3492 27.3962C72.0828 27.2341 71.9184 27.0208 71.8562 26.7563L70.5506 26.9483C70.6483 27.5284 70.9414 27.9849 71.4299 28.3176C71.9185 28.6418 72.5536 28.804 73.3353 28.804C74.1347 28.804 74.7787 28.629 75.2673 28.2792C75.3432 28.2249 75.4131 28.1671 75.4772 28.1058C75.5034 28.0807 75.5286 28.0551 75.5528 28.0289C75.851 27.706 76.0001 27.2946 76.0001 26.7947C76.0001 26.3425 75.8624 25.9628 75.587 25.6557C75.3205 25.3485 74.8897 25.0883 74.2946 24.875L72.7356 24.3631C72.2915 24.2095 72.0694 23.9877 72.0694 23.6976C72.0694 23.539 72.1239 23.4044 72.2329 23.2937C72.2763 23.2496 72.3285 23.2093 72.3893 23.1728C72.6025 23.0448 72.8778 22.9808 73.2154 22.9808C73.9615 22.9808 74.4145 23.2282 74.5744 23.7231L75.8801 23.5055Z" fill="#396CF0"/>
<path fill-rule="evenodd" clip-rule="evenodd" d="M63.2721 25.5889V22.2287H64.6229V25.5889C64.6229 26.6285 65.4656 27.4712 66.5052 27.4712C67.5448 27.4712 68.3875 26.6285 68.3875 25.5889V22.2287H69.7383V25.5889C69.7383 27.3745 68.2908 28.822 66.5052 28.822C64.7196 28.822 63.2721 27.3745 63.2721 25.5889Z" fill="#396CF0"/>
<defs>
<linearGradient id="paint0_linear_7293_2853" x1="3.03182" y1="7.43442" x2="3.04533" y2="29.1861" gradientUnits="userSpaceOnUse">
<stop stop-color="#7397F4"/>
<stop offset="1" stop-color="#3C6EF0"/>
</linearGradient>
<linearGradient id="paint1_linear_7293_2853" x1="39.1556" y1="13.2271" x2="37.339" y2="27.12" gradientUnits="userSpaceOnUse">
<stop stop-color="#396CF0"/>
<stop offset="1" stop-color="#7397F4"/>
</linearGradient>
<linearGradient id="paint2_linear_7293_2853" x1="47.32" y1="8.11878" x2="38.2251" y2="14.2041" gradientUnits="userSpaceOnUse">
<stop stop-color="#ABE87B"/>
<stop offset="1" stop-color="#7397F4"/>
</linearGradient>
<linearGradient id="paint3_linear_7293_2853" x1="20.0449" y1="20.9353" x2="26.7497" y2="29.647" gradientUnits="userSpaceOnUse">
<stop stop-color="#3C6EF0"/>
<stop offset="1" stop-color="#7397F4"/>
</linearGradient>
<linearGradient id="paint4_linear_7293_2853" x1="10.1473" y1="26.0893" x2="18.0835" y2="19.9774" gradientUnits="userSpaceOnUse">
<stop stop-color="#396CF0"/>
<stop offset="1" stop-color="#7397F4"/>
</linearGradient>
<clipPath id="clip0_7293_2853">
<rect width="23.1119" height="23.2406" fill="white" transform="translate(8.02696 5.64645)"/>
</clipPath>
</defs>
</svg>
