<svg width="140" height="54" viewBox="0 0 140 54" fill="none" xmlns="http://www.w3.org/2000/svg">
<path d="M0 10.4878H9.19257V53.6228H0V10.4878Z" fill="url(#paint0_linear_7670_13288)"/>
<path d="M69.0811 21.7065C68.7824 22.886 68.7633 23.8471 69.2923 25.0159C71.9054 29.9173 81.5561 27.3448 86.8267 31.6591C88.0156 32.6581 88.9431 33.9442 89.5257 35.4016C93.0792 43.8148 86.7647 53.7003 77.8106 53.671L58.8201 53.6178L58.898 45.0306L75.5357 45.2248C79.8426 45.2806 82.735 41.1545 80.8959 37.1647C80.8038 36.9628 80.6988 36.7673 80.5816 36.5795C76.3536 31.6591 70.521 31.43 68.9935 26.3659C68.4636 24.5572 68.0135 22.7838 69.0811 21.7065Z" fill="url(#paint1_linear_7670_13288)"/>
<path fill-rule="evenodd" clip-rule="evenodd" d="M84.1486 10.2031L70.4078 10.314C61.4892 10.3698 56.4439 20.7929 60.0662 29.1636C60.6583 30.6175 61.946 31.8963 63.1419 32.8839C65.4326 34.7292 68.9981 35.452 72.3215 36.1258C76.6745 37.0083 80.6121 37.8066 80.7253 40.9327C80.9503 42.1006 80.0689 43.1969 79.7509 43.5924C79.6992 43.6568 79.6623 43.7026 79.6476 43.7271C81.332 42.5253 82.2677 39.5699 81.7243 37.7603C80.9059 35.1166 78.6239 33.8008 76.15 32.3744C73.8767 31.0636 71.4414 29.6594 69.8307 27.0457C69.7126 26.8589 69.6063 26.6645 69.5125 26.4637C67.6444 22.4963 69.584 18.4186 73.8739 18.4319L84.1486 18.469V10.2031Z" fill="url(#paint2_linear_7670_13288)"/>
<mask id="mask0_7670_13288" style="mask-type:alpha" maskUnits="userSpaceOnUse" x="85" y="0" width="18" height="29">
<path d="M88.3994 28.5046V18.5513V28.5046Z" fill="#ABE87B"/>
<path d="M88.3994 28.5046V18.5513" stroke="#B4E773" stroke-width="6.45336" stroke-miterlimit="10"/>
<path d="M88.3994 9.95331V0V9.95331Z" fill="#ABE87B"/>
<path d="M88.3994 9.95331V0" stroke="#B4E773" stroke-width="6.45336" stroke-miterlimit="10"/>
<path d="M102.598 14.2422H92.6436H102.598Z" fill="#ABE87B"/>
<path d="M102.598 14.2422H92.6436" stroke="#B4E773" stroke-width="6.45336" stroke-miterlimit="10"/>
</mask>
<g mask="url(#mask0_7670_13288)">
<rect x="84.2144" y="-0.42334" width="23.2162" height="30.955" fill="#ABE87B"/>
</g>
<g clip-path="url(#clip0_7670_13288)">
<path d="M30.4609 41.7073L43.0922 53.6169H56.7308L43.129 40.4536L30.4609 41.7073Z" fill="url(#paint3_linear_7670_13288)"/>
<path fill-rule="evenodd" clip-rule="evenodd" d="M15.7503 10.4979V10.4839L39.1629 10.4871C41.2131 10.4869 43.2433 10.8906 45.1375 11.6751C47.0317 12.4597 48.7528 13.6097 50.2025 15.0596C51.6522 16.5094 52.8021 18.2306 53.5866 20.125C54.3711 22.0193 54.7747 24.0497 54.7745 26.1001C54.7745 28.1503 54.3707 30.1805 53.5861 32.0747C52.8016 33.9688 51.6516 35.6899 50.2019 37.1396C48.7522 38.5892 47.0312 39.7391 45.1371 40.5236C43.243 41.308 41.213 41.7117 39.1629 41.7115H30.4602L30.489 33.9424L34.967 33.9556L39.3875 33.8097C40.3554 33.8097 41.3138 33.619 42.208 33.2486C43.1022 32.8781 43.9146 32.3351 44.5989 31.6505C45.2833 30.966 45.8261 30.1534 46.1963 29.259C46.5666 28.3647 46.757 27.2355 46.7568 26.2675C46.7568 24.3129 45.9804 22.2677 44.5984 20.8855C43.2164 19.5034 41.342 18.7269 39.3875 18.7269H23.2274V53.6175H14.1453V10.4979H15.7503Z" fill="url(#paint4_linear_7670_13288)"/>
</g>
<path fill-rule="evenodd" clip-rule="evenodd" d="M106.462 40.9165H108.969V50.8287H115.76V53.3357H106.462V40.9165Z" fill="#4676F1"/>
<path d="M96.6614 49.4756V53.4829H94.0591V40.6782H99.6768C100.997 40.6782 102.111 41.099 103.017 41.9405C103.923 42.7691 104.376 43.8114 104.376 45.0672C104.376 46.336 103.923 47.3847 103.017 48.2133C102.111 49.0548 100.997 49.4756 99.6768 49.4756H96.6614ZM99.6768 43.0863H96.6614V47.0675H99.6768C100.246 47.0675 100.719 46.8798 101.094 46.5043C101.47 46.1159 101.658 45.6369 101.658 45.0672C101.658 44.4975 101.47 44.025 101.094 43.6495C100.719 43.2741 100.246 43.0863 99.6768 43.0863Z" fill="#4676F1"/>
<path fill-rule="evenodd" clip-rule="evenodd" d="M139.777 43.6273C139.771 43.5963 139.765 43.5655 139.758 43.535C139.562 42.6136 139.057 41.8849 138.244 41.3488C137.403 40.7787 136.332 40.4937 135.029 40.4937C133.578 40.4937 132.416 40.8104 131.542 41.4438C130.669 42.0772 130.232 42.9877 130.232 44.1754C130.232 44.1845 130.232 44.1937 130.232 44.2028C130.237 44.9973 130.46 45.6526 130.899 46.1689C131.361 46.6914 132.095 47.119 133.1 47.4515L135.969 48.3779C137.003 48.7407 137.523 49.2134 137.527 49.7962C137.527 49.799 137.527 49.8019 137.527 49.8048C137.527 50.264 137.296 50.6282 136.834 50.8974C136.389 51.1666 135.812 51.3012 135.103 51.3012C134.345 51.3012 133.719 51.1508 133.224 50.8499C132.729 50.5491 132.424 50.1532 132.309 49.6623L129.886 50.0185C130.067 51.0945 130.611 51.9412 131.518 52.5584C132.424 53.1601 133.603 53.461 135.054 53.461C136.538 53.461 137.733 53.1364 138.64 52.4871C139.546 51.8379 140 50.9194 140 49.7318C140 49.7206 140 49.7095 140 49.6983C139.993 48.8745 139.737 48.1816 139.233 47.6195C138.739 47.0495 137.939 46.5665 136.834 46.1706L133.941 45.2205C133.12 44.9365 132.708 44.5269 132.705 43.9915C132.705 43.9888 132.705 43.9862 132.705 43.9836C132.705 43.5719 132.902 43.2472 133.298 43.0097C133.694 42.7722 134.205 42.6534 134.831 42.6534C136.216 42.6534 137.057 43.1126 137.354 44.0311L139.777 43.6273Z" fill="#4676F1"/>
<path fill-rule="evenodd" clip-rule="evenodd" d="M116.375 47.4937V41.2573H118.882V47.4937C118.882 49.4231 120.447 50.9872 122.376 50.9872C124.306 50.9872 125.87 49.4231 125.87 47.4937V41.2573H128.377V47.4937C128.377 50.8077 125.69 53.4943 122.376 53.4943C119.062 53.4943 116.375 50.8077 116.375 47.4937Z" fill="#4676F1"/>
<defs>
<linearGradient id="paint0_linear_7670_13288" x1="4.57122" y1="13.8003" x2="4.59628" y2="54.1708" gradientUnits="userSpaceOnUse">
<stop stop-color="#7397F4"/>
<stop offset="1" stop-color="#3C6EF0"/>
</linearGradient>
<linearGradient id="paint1_linear_7670_13288" x1="71.6162" y1="24.5494" x2="68.2447" y2="50.3342" gradientUnits="userSpaceOnUse">
<stop stop-color="#396CF0"/>
<stop offset="1" stop-color="#7397F4"/>
</linearGradient>
<linearGradient id="paint2_linear_7670_13288" x1="86.7691" y1="15.0681" x2="69.889" y2="26.3625" gradientUnits="userSpaceOnUse">
<stop stop-color="#ABE87B"/>
<stop offset="1" stop-color="#7397F4"/>
</linearGradient>
<linearGradient id="paint3_linear_7670_13288" x1="36.1478" y1="38.86" x2="48.5917" y2="55.0286" gradientUnits="userSpaceOnUse">
<stop stop-color="#3C6EF0"/>
<stop offset="1" stop-color="#7397F4"/>
</linearGradient>
<linearGradient id="paint4_linear_7670_13288" x1="17.7753" y1="48.4238" x2="32.5044" y2="37.0802" gradientUnits="userSpaceOnUse">
<stop stop-color="#396CF0"/>
<stop offset="1" stop-color="#7397F4"/>
</linearGradient>
<clipPath id="clip0_7670_13288">
<rect width="42.8951" height="43.134" fill="white" transform="translate(13.8418 10.481)"/>
</clipPath>
</defs>
</svg>
