<svg width="25" height="25" viewBox="0 0 25 25" fill="none" xmlns="http://www.w3.org/2000/svg">
<path d="M8.89648 13.0967H15.8965" stroke="#292D32" stroke-width="1.5" stroke-miterlimit="10" stroke-linecap="round" stroke-linejoin="round"/>
<path d="M8.89648 17.0967H13.2765" stroke="#292D32" stroke-width="1.5" stroke-miterlimit="10" stroke-linecap="round" stroke-linejoin="round"/>
<path d="M10.8965 6.89648H14.8965C16.8965 6.89648 16.8965 5.89648 16.8965 4.89648C16.8965 2.89648 15.8965 2.89648 14.8965 2.89648H10.8965C9.89648 2.89648 8.89648 2.89648 8.89648 4.89648C8.89648 6.89648 9.89648 6.89648 10.8965 6.89648Z" stroke="#292D32" stroke-width="1.5" stroke-miterlimit="10" stroke-linecap="round" stroke-linejoin="round"/>
<path d="M16.8965 4.9165C20.2265 5.0965 21.8965 6.3265 21.8965 10.8965V16.8965C21.8965 20.8965 20.8965 22.8965 15.8965 22.8965H9.89648C4.89648 22.8965 3.89648 20.8965 3.89648 16.8965V10.8965C3.89648 6.3365 5.56648 5.0965 8.89648 4.9165" stroke="#292D32" stroke-width="1.5" stroke-miterlimit="10" stroke-linecap="round" stroke-linejoin="round"/>
</svg>
