<svg width="19" height="19" viewBox="0 0 19 19" fill="none" xmlns="http://www.w3.org/2000/svg">
<path d="M14.4718 9.99231V12.8255C14.4718 15.2146 12.2436 17.1519 9.49459 17.1519C6.74561 17.1519 4.51733 15.2146 4.51733 12.8255V9.99231C4.51733 12.3814 6.74561 14.089 9.49459 14.089C12.2436 14.089 14.4718 12.3814 14.4718 9.99231Z" stroke="black" stroke-width="1.3094" stroke-linecap="round" stroke-linejoin="round"/>
<path d="M14.4718 6.1636C14.4718 6.86042 14.2804 7.50363 13.9435 8.05495C13.1241 9.40264 11.4395 10.2603 9.49459 10.2603C7.54963 10.2603 5.86502 9.40264 5.04569 8.05495C4.70877 7.50363 4.51733 6.86042 4.51733 6.1636C4.51733 4.96906 5.07631 3.88938 5.97222 3.10833C6.87578 2.31963 8.11627 1.83722 9.49459 1.83722C10.8729 1.83722 12.1134 2.31963 13.017 3.10068C13.9129 3.88938 14.4718 4.96906 14.4718 6.1636Z" stroke="black" stroke-width="1.3094" stroke-linecap="round" stroke-linejoin="round"/>
<path d="M14.4718 6.1636V9.99226C14.4718 12.3813 12.2436 14.0889 9.49459 14.0889C6.74561 14.0889 4.51733 12.3813 4.51733 9.99226V6.1636C4.51733 3.77452 6.74561 1.83722 9.49459 1.83722C10.8729 1.83722 12.1134 2.31963 13.017 3.10068C13.9129 3.88938 14.4718 4.96906 14.4718 6.1636Z" stroke="black" stroke-width="1.3094" stroke-linecap="round" stroke-linejoin="round"/>
</svg>
