<svg width="17" height="17" viewBox="0 0 17 17" fill="none" xmlns="http://www.w3.org/2000/svg">
<path d="M8.91032 15.1075C12.5922 15.1075 15.577 12.1227 15.577 8.44084C15.577 4.75894 12.5922 1.77417 8.91032 1.77417C5.22842 1.77417 2.24365 4.75894 2.24365 8.44084C2.24365 12.1227 5.22842 15.1075 8.91032 15.1075Z" stroke="#292D32" stroke-linecap="round" stroke-linejoin="round"/>
<path d="M6.24339 2.44092H6.91006C5.61006 6.33425 5.61006 10.5476 6.91006 14.4409H6.24339" stroke="#292D32" stroke-linecap="round" stroke-linejoin="round"/>
<path d="M10.9102 2.44092C12.2102 6.33425 12.2102 10.5476 10.9102 14.4409" stroke="#292D32" stroke-linecap="round" stroke-linejoin="round"/>
<path d="M2.91016 11.1076V10.4409C6.80349 11.7409 11.0168 11.7409 14.9102 10.4409V11.1076" stroke="#292D32" stroke-linecap="round" stroke-linejoin="round"/>
<path d="M2.91016 6.44082C6.80349 5.14082 11.0168 5.14082 14.9102 6.44082" stroke="#292D32" stroke-linecap="round" stroke-linejoin="round"/>
</svg>
