<svg width="21" height="21" viewBox="0 0 21 21" fill="none" xmlns="http://www.w3.org/2000/svg">
<path d="M9.44238 2.41748C10.0264 1.91813 10.9827 1.91813 11.5752 2.41748L12.9124 3.56861C13.1663 3.78867 13.6403 3.96637 13.9788 3.96637H15.4176C16.3148 3.96637 17.0511 4.70265 17.0511 5.59978V7.03864C17.0511 7.36872 17.2288 7.85115 17.4489 8.10506L18.5999 9.44226C19.0993 10.0262 19.0993 10.9826 18.5999 11.5751L17.4489 12.9123C17.2288 13.1662 17.0511 13.6402 17.0511 13.9787V15.4176C17.0511 16.3147 16.3148 17.051 15.4176 17.051H13.9788C13.6487 17.051 13.1663 17.2287 12.9124 17.4487L11.5752 18.5998C10.9912 19.0991 10.0348 19.0991 9.44238 18.5998L8.10515 17.4487C7.85125 17.2287 7.37728 17.051 7.03874 17.051H5.57454C4.6774 17.051 3.94108 16.3147 3.94108 15.4176V13.9702C3.94108 13.6402 3.76335 13.1662 3.55176 12.9123L2.40918 11.5666C1.91829 10.9826 1.91829 10.0347 2.40918 9.45073L3.55176 8.10506C3.76335 7.85115 3.94108 7.37719 3.94108 7.04712V5.59978C3.94108 4.70265 4.6774 3.96637 5.57454 3.96637H7.03874C7.36882 3.96637 7.85125 3.78867 8.10515 3.56861L9.44238 2.41748Z" stroke="#292D32" stroke-width="1.26953" stroke-linecap="round" stroke-linejoin="round"/>
<path d="M8.71421 12.8869L9.94141 13.8348C10.1022 13.9956 10.4577 14.0718 10.6947 14.0718H12.1927C12.6667 14.0718 13.1829 13.7163 13.3014 13.2424L14.2493 10.3478C14.444 9.79767 14.0886 9.31527 13.4961 9.31527H11.9134C11.6764 9.31527 11.4818 9.12067 11.5156 8.84137L11.7103 7.57184C11.7865 7.21637 11.5495 6.81856 11.194 6.70007C10.8809 6.58158 10.4831 6.74235 10.3223 6.97933L8.69727 9.39142" stroke="#292D32" stroke-width="1.26953" stroke-miterlimit="10"/>
<path d="M6.69141 12.8854V9.00913C6.69141 8.45053 6.92839 8.25586 7.48698 8.25586H7.88477C8.4349 8.25586 8.68034 8.45053 8.68034 9.00913V12.8854C8.68034 13.4355 8.44336 13.6387 7.88477 13.6387H7.48698C6.92839 13.6387 6.69141 13.444 6.69141 12.8854Z" stroke="#292D32" stroke-width="1.26953" stroke-linecap="round" stroke-linejoin="round"/>
</svg>
