<svg width="17" height="17" viewBox="0 0 17 17" fill="none" xmlns="http://www.w3.org/2000/svg">
<path d="M1.66211 5.53732V12.024C1.66211 13.2907 2.56211 13.8107 3.65544 13.184L5.22211 12.2907C5.56211 12.0973 6.12878 12.0773 6.48211 12.2573L9.98211 14.0107C10.3354 14.184 10.9021 14.1707 11.2421 13.9773L14.1288 12.324C14.4954 12.1107 14.8021 11.5907 14.8021 11.164V4.67732C14.8021 3.41065 13.9021 2.89065 12.8088 3.51732L11.2421 4.41065C10.9021 4.60398 10.3354 4.62398 9.98211 4.44398L6.48211 2.69732C6.12878 2.52398 5.56211 2.53732 5.22211 2.73065L2.33544 4.38398C1.96211 4.59732 1.66211 5.11732 1.66211 5.53732Z" stroke="#292D32" stroke-linecap="round" stroke-linejoin="round"/>
<path d="M5.84229 3.01733V11.684" stroke="#292D32" stroke-linecap="round" stroke-linejoin="round"/>
<path d="M10.6223 4.76416V13.6842" stroke="#292D32" stroke-linecap="round" stroke-linejoin="round"/>
</svg>
