<svg width="20" height="21" viewBox="0 0 20 21" fill="none" xmlns="http://www.w3.org/2000/svg">
<path d="M18.3335 5.9366V7.95327C18.3335 9.26994 17.5002 10.1033 16.1835 10.1033H13.3335V4.27827C13.3335 3.35327 14.0918 2.60327 15.0168 2.60327C15.9252 2.6116 16.7585 2.97827 17.3585 3.57827C17.9585 4.1866 18.3335 5.01994 18.3335 5.9366Z" stroke="white" stroke-width="1.5" stroke-miterlimit="10" stroke-linecap="round" stroke-linejoin="round"/>
<path d="M1.6665 6.76994V18.4366C1.6665 19.1283 2.44984 19.5199 2.99984 19.1033L4.42484 18.0366C4.75817 17.7866 5.22484 17.8199 5.52484 18.1199L6.90817 19.5116C7.23317 19.8366 7.7665 19.8366 8.0915 19.5116L9.4915 18.1116C9.78317 17.8199 10.2498 17.7866 10.5748 18.0366L11.9998 19.1033C12.5498 19.5116 13.3332 19.1199 13.3332 18.4366V4.26994C13.3332 3.35327 14.0832 2.60327 14.9998 2.60327H5.83317H4.99984C2.49984 2.60327 1.6665 4.09494 1.6665 5.9366V6.76994Z" stroke="white" stroke-width="1.5" stroke-miterlimit="10" stroke-linecap="round" stroke-linejoin="round"/>
<path d="M7.5 11.7781H10" stroke="white" stroke-width="1.5" stroke-linecap="round" stroke-linejoin="round"/>
<path d="M7.5 8.44482H10" stroke="white" stroke-width="1.5" stroke-linecap="round" stroke-linejoin="round"/>
<path d="M4.99609 11.7698H5.00358" stroke="white" stroke-width="2" stroke-linecap="round" stroke-linejoin="round"/>
<path d="M4.99609 8.43652H5.00358" stroke="white" stroke-width="2" stroke-linecap="round" stroke-linejoin="round"/>
</svg>
