<svg width="17" height="17" viewBox="0 0 17 17" fill="none" xmlns="http://www.w3.org/2000/svg">
<path d="M4.60189 6.44084C5.89055 6.44084 6.93522 5.39617 6.93522 4.1075C6.93522 2.81884 5.89055 1.77417 4.60189 1.77417C3.31322 1.77417 2.26855 2.81884 2.26855 4.1075C2.26855 5.39617 3.31322 6.44084 4.60189 6.44084Z" stroke="#292D32"/>
<path d="M12.2684 10.4409H14.2684C15.0017 10.4409 15.6017 11.0409 15.6017 11.7743V13.7743C15.6017 14.5076 15.0017 15.1076 14.2684 15.1076H12.2684C11.5351 15.1076 10.9351 14.5076 10.9351 13.7743V11.7743C10.9351 11.0409 11.5351 10.4409 12.2684 10.4409Z" stroke="#292D32"/>
<path d="M8.9552 3.77417H10.7419C11.9752 3.77417 12.5485 5.30084 11.6219 6.11417L6.2952 10.7742C5.36854 11.5808 5.94187 13.1075 7.16854 13.1075H8.9552" stroke="#292D32" stroke-linecap="round" stroke-linejoin="round"/>
<path d="M4.61256 4.1075H4.62026" stroke="#292D32" stroke-width="1.33333" stroke-linecap="round" stroke-linejoin="round"/>
<path d="M13.2791 12.7743H13.2868" stroke="#292D32" stroke-width="1.33333" stroke-linecap="round" stroke-linejoin="round"/>
</svg>
