<svg width="22" height="22" viewBox="0 0 22 22" fill="none" xmlns="http://www.w3.org/2000/svg">
<path d="M12.5741 3.89771L14.1072 6.96387C14.3163 7.3907 14.8738 7.8001 15.3441 7.8785L18.1228 8.34016C19.8998 8.63633 20.3179 9.92551 19.0375 11.1973L16.8772 13.3575C16.5114 13.7234 16.311 14.4289 16.4243 14.9342L17.0427 17.6083C17.5305 19.725 16.4068 20.5438 14.534 19.4376L11.9295 17.8958C11.4592 17.617 10.6839 17.617 10.2048 17.8958L7.60033 19.4376C5.73624 20.5438 4.60385 19.7163 5.09165 17.6083L5.71011 14.9342C5.82335 14.4289 5.623 13.7234 5.25715 13.3575L3.0969 11.1973C1.82514 9.92551 2.23454 8.63633 4.01152 8.34016L6.79023 7.8785C7.2519 7.8001 7.80939 7.3907 8.01844 6.96387L9.55152 3.89771C10.3878 2.23397 11.7466 2.23397 12.5741 3.89771Z" stroke="white" stroke-width="1.48082" stroke-linecap="round" stroke-linejoin="round"/>
</svg>
