<svg width="17" height="17" viewBox="0 0 17 17" fill="none" xmlns="http://www.w3.org/2000/svg">
<path d="M3.73533 10.641L6.75533 13.661C7.99533 14.901 10.0087 14.901 11.2553 13.661L14.182 10.7343C15.422 9.49428 15.422 7.48095 14.182 6.23428L11.1553 3.22095C10.522 2.58762 9.64867 2.24762 8.75533 2.29428L5.422 2.45428C4.08867 2.51428 3.02867 3.57428 2.962 4.90095L2.802 8.23428C2.762 9.13428 3.102 10.0076 3.73533 10.641Z" stroke="#292D32" stroke-linecap="round" stroke-linejoin="round"/>
<path d="M7.28874 8.441C8.20921 8.441 8.9554 7.69481 8.9554 6.77433C8.9554 5.85386 8.20921 5.10767 7.28874 5.10767C6.36826 5.10767 5.62207 5.85386 5.62207 6.77433C5.62207 7.69481 6.36826 8.441 7.28874 8.441Z" stroke="#292D32" stroke-linecap="round"/>
</svg>
