<svg width="125" height="125" viewBox="0 0 125 125" fill="none" xmlns="http://www.w3.org/2000/svg">
<path opacity="0.1" fill-rule="evenodd" clip-rule="evenodd" d="M31.0327 5.17212C31.0327 2.31564 28.7171 0 25.8606 0H5.17212C2.31564 0 0 2.31563 0 5.17212V25.8606C0 28.7171 2.31563 31.0327 5.17212 31.0327H25.8606C28.7171 31.0327 31.0327 28.7171 31.0327 25.8606V5.17212ZM31.0327 65.1682C31.0327 62.3117 28.7171 59.9961 25.8606 59.9961H5.17212C2.31564 59.9961 0 62.3117 0 65.1682V85.8567C0 88.7132 2.31563 91.0288 5.17212 91.0288H25.8606C28.7171 91.0288 31.0327 88.7132 31.0327 85.8567V65.1682ZM31.0332 35.1702C31.0332 32.3137 33.3488 29.998 36.2053 29.998H56.8923C59.7488 29.998 62.0645 27.6824 62.0645 24.8259V5.17212C62.0645 2.31564 64.3801 0 67.2366 0H87.925C90.7815 0 93.0972 2.31564 93.0972 5.17212V24.8259C93.0972 27.6824 95.4128 29.998 98.2693 29.998H117.925C120.782 29.998 123.097 32.3137 123.097 35.1702V55.8586C123.097 58.7151 120.782 61.0307 117.925 61.0307H98.2693C95.4128 61.0307 93.0972 63.3464 93.0972 66.2029V85.8567C93.0972 88.7132 90.7815 91.0288 87.925 91.0288H67.238C64.3815 91.0288 62.0659 93.3444 62.0659 96.2009V115.857C62.0659 118.713 59.7503 121.029 56.8938 121.029H36.2053C33.3488 121.029 31.0332 118.713 31.0332 115.857V95.1682C31.0332 92.3117 33.3488 89.9961 36.2053 89.9961H56.8923C59.7488 89.9961 62.0645 87.6805 62.0645 84.824V66.2029C62.0645 63.3464 59.7488 61.0307 56.8923 61.0307H36.2053C33.3488 61.0307 31.0332 58.7151 31.0332 55.8586V35.1702ZM62.0659 36.2048C62.0659 33.3483 64.3815 31.0327 67.238 31.0327H86.8923C89.7488 31.0327 92.0645 33.3483 92.0645 36.2048V54.824C92.0645 57.6805 89.7488 59.9961 86.8923 59.9961H67.238C64.3815 59.9961 62.0659 57.6805 62.0659 54.824V36.2048ZM124.132 98.2698C124.132 95.4133 121.817 93.0977 118.96 93.0977H98.2717C95.4152 93.0977 93.0996 95.4133 93.0996 98.2698V118.958C93.0996 121.815 95.4152 124.13 98.2717 124.13H118.96C121.817 124.13 124.132 121.815 124.132 118.958V98.2698Z" fill="#2459DF"/>
</svg>
